<?xml version="1.0" encoding="UTF-8" standalone="no"?>
<svg
   xmlns:dc="http://purl.org/dc/elements/1.1/"
   xmlns:cc="http://creativecommons.org/ns#"
   xmlns:rdf="http://www.w3.org/1999/02/22-rdf-syntax-ns#"
   xmlns:svg="http://www.w3.org/2000/svg"
   xmlns="http://www.w3.org/2000/svg"
   xmlns:sodipodi="http://sodipodi.sourceforge.net/DTD/sodipodi-0.dtd"
   xmlns:inkscape="http://www.inkscape.org/namespaces/inkscape"
   version="1.1"
   x="0px"
   y="0px"
   viewBox="0 0 90.999999 77.474442"
   enable-background="new 0 0 100 100"
   xml:space="preserve"
   id="svg2"
   inkscape:version="0.91 r13725"
   sodipodi:docname="shirtable-logo.svg"
   width="91"
   height="77.474442"><metadata
     id="metadata18"><rdf:RDF><cc:Work
         rdf:about=""><dc:format>image/svg+xml</dc:format><dc:type
           rdf:resource="http://purl.org/dc/dcmitype/StillImage" /><dc:title></dc:title></cc:Work></rdf:RDF></metadata><defs
     id="defs16" /><sodipodi:namedview
     pagecolor="#ffffff"
     bordercolor="#666666"
     borderopacity="1"
     objecttolerance="10"
     gridtolerance="10"
     guidetolerance="10"
     inkscape:pageopacity="0"
     inkscape:pageshadow="2"
     inkscape:window-width="1289"
     inkscape:window-height="764"
     id="namedview14"
     showgrid="false"
     fit-margin-top="0"
     fit-margin-left="0"
     fit-margin-right="0"
     fit-margin-bottom="0"
     inkscape:zoom="0.6675088"
     inkscape:cx="168.43365"
     inkscape:cy="204.51648"
     inkscape:window-x="0"
     inkscape:window-y="0"
     inkscape:window-maximized="0"
     inkscape:current-layer="svg2" /><line
     x1="-2.5000021"
     y1="-8152.7705"
     x2="3.4999979"
     y2="-8152.7705"
     id="line4"
     style="fill:none" /><line
     x1="3.4999979"
     y1="8230.2295"
     x2="-2.5000021"
     y2="8230.2295"
     id="line6"
     style="fill:none" /><path
     d="M 90.804,19.917444 71.342,5.0424444 c -0.041,-0.031 -0.088,-0.057 -0.137,-0.074 L 57.235,0.01844444 c -0.009,0 -0.019,0 -0.029,0 -0.033,-0.01 -0.065,-0.011 -0.1,-0.014 -0.032,0 -0.062,-0.01 -0.094,0 -0.032,0 -0.063,0.016 -0.095,0.026 -0.025,0.01 -0.052,0.01 -0.076,0.02 -0.007,0 -0.012,0.011 -0.019,0.015 -0.007,0 -0.015,0 -0.022,0.01 -0.044,0.027 -4.479,2.76499996 -11.302,2.76499996 -6.824,0 -11.257,-2.73699996 -11.301,-2.76499996 -0.007,0 -0.015,0 -0.022,-0.01 -0.007,0 -0.012,-0.011 -0.019,-0.015 -0.024,-0.012 -0.052,-0.013 -0.077,-0.021 -0.03,-0.01 -0.058,-0.021 -0.089,-0.025 -0.035,0 -0.068,0 -0.103,0 -0.031,0 -0.061,0.01 -0.091,0.013 -0.011,0 -0.022,0 -0.032,0.01 l -2.79,0.98899996 c -0.008,0 -0.016,0 -0.024,0 -0.012,0 -0.019,0.012 -0.03,0.017 l -11.125,3.942 c -0.049,0.017 -0.095,0.042 -0.137,0.074 L 0.196,19.923444 c -0.123,0.095 -0.196,0.242 -0.196,0.398 0,0.23 0.096,5.754 8.4369999,14.843 0.147,0.161 0.382,0.208 0.58,0.115 l 10.4460001,-4.875 0,45.455 c 0,0.263 0.203,0.48 0.465,0.499 0.16,0.011 16.118,1.116 25.572,1.116 9.454,0 25.413,-1.105 25.573,-1.116 0.262,-0.019 0.465,-0.236 0.465,-0.499 l 0,-45.455 10.445,4.875 c 0.2,0.092 0.433,0.045 0.58,-0.115 8.341,-9.089 8.437,-14.613 8.437,-14.843 0,-0.156 -0.072,-0.303 -0.196,-0.398 z M 56.121,1.5574444 c -1.068,2.435 -4.117,7.677 -10.621,7.677 -6.511,0 -9.557,-5.243 -10.622,-7.677 1.809,0.861 5.549,2.275 10.622,2.275 5.072,0 8.812,-1.415 10.621,-2.275 z M 45.5,76.468444 c -8.512,0 -22.336,-0.9 -25.038,-1.082 l 0,-45.653 12.22,-23.8239996 c 2.378,3.665 6.538,7.3239996 12.818,7.3239996 6.276,0 10.437,-3.6609996 12.817,-7.3259996 l 12.221,23.8269996 0,45.652 c -2.702,0.182 -16.526,1.082 -25.038,1.082 z"
     id="path8"
     inkscape:connector-curvature="0" /><g
     id="g4223"
     transform="matrix(0.46058869,0,0,0.46058869,21.92641,19.389444)"><polygon
       id="polygon4211"
       points="100.33,25.844 84.156,9.664 35.818,58.002 16.505,38.682 0.331,54.857 35.818,90.351 35.823,90.351 "
       transform="translate(0,10.570928)" /></g></svg>